# xmcd
# 
# Track frame offsets:
#     150
#     13900
#     26714
#     37794
#     51518
#     63536
#     76724
#     90400
#     102906
#     115354
#     128587
#     140953
#     153555
#     165743
#     177897
#     190369
#     202609
#     214832
#     225539
#     236236
# 
# Disc length: 3309
# 
# Revision: 1
# Processed by: cddbd v1.5.2PL0 Copyright (c) Steve Scherf et al.
# Submitted via: fre:ac v1.0.17
# 
DISCID=110ceb14
DTITLE=Slim Whitman - The Absolutely Essential Slim Whitman [CD3]
DYEAR=2013
DGENRE=Country
TTITLE0=Tumbling Tumbleweeds
TTITLE1=I Leave The Milky Way
TTITLE2=Heart Full Of Love
TTITLE3=Roll On, Silvery Moon
TTITLE4=We Stood At The Altar
TTITLE5=Why
TTITLE6=Haunted Hungry Heart
TTITLE7=Wabash Waltz
TTITLE8=Amateur In Love
TTITLE9=Love Song Of The Waterfall
TTITLE10=My Love Is Growing Stale
TTITLE11=By The Waters Of Minnetonka
TTITLE12=Dear Mary
TTITLE13=A Petal From A Faded Rose
TTITLE14=The Whiffenpoof Song
TTITLE15=There's A Loveknot In My Lariat
TTITLE16=I'm A Fool
TTITLE17=Beautiful Dreamer
TTITLE18=The Old Lamplighter
TTITLE19=Blue Eyes Crying In The Rain
EXTD=
EXTT0=
EXTT1=
EXTT2=
EXTT3=
EXTT4=
EXTT5=
EXTT6=
EXTT7=
EXTT8=
EXTT9=
EXTT10=
EXTT11=
EXTT12=
EXTT13=
EXTT14=
EXTT15=
EXTT16=
EXTT17=
EXTT18=
EXTT19=
PLAYORDER=
